<svg xmlns="http://www.w3.org/2000/svg" viewBox="0 0 1920 1080"><defs><style>.cls-1{fill:#d0ff00;}</style></defs><title>Mesa de trabajo 2</title><g id="Capa_6" data-name="Capa 6"><polygon class="cls-1" points="806.97 416.03 776.63 433.24 785 497.88 785 526.17 791.8 591.14 783.48 621.75 798.64 644.92 894.14 632.79 965.01 638.85 965.01 621.75 960 576.71 945.62 570.64 876.29 570.64 870.82 536.93 876.29 462.13 876.29 416.03 806.97 416.03"/><polygon points="1198.81 416.03 1159.4 450.89 1159.4 485.15 1164.7 517.21 1152.73 580.87 1168.12 621.75 1205.63 637.72 1299.99 644.92 1379.57 610.43 1405.72 568.37 1382.98 526.11 1384.12 476.28 1373.88 433.24 1287.48 400.12 1198.81 416.03"/><path class="cls-1" d="M1197,414.26l-16.49,14.6L1158.9,448a7.5,7.5,0,0,0-1.66,1.62c-.57,1-.34,2.57-.34,3.66v29.59a35.91,35.91,0,0,0,.6,6l4.68,28.27.11.71v-1.33l-2.41,12.82L1155,555.52l-4,21.4c-.24,1.28-1,3.31-.62,4.62a50.77,50.77,0,0,0,1.85,4.9l9,24.06,3.63,9.65c.55,1.45.94,3.26,2.45,4,6.4,2.93,13,5.53,19.47,8.29l17.55,7.46a10,10,0,0,0,3.26.51l6.47.5,22.21,1.69,27.54,2.1,24,1.84c4,.3,8,.85,12,.91a6.89,6.89,0,0,0,2.68-.85l5.64-2.44,20.72-9L1354,624.2l20.35-8.82,5.42-2.35a4.36,4.36,0,0,0,2.23-1.84l10.44-16.79,13.11-21.1,2.28-3.67a2.5,2.5,0,0,0,0-2.52l-7.66-14.24-12.27-22.82-2.8-5.2.34,1.26.64-28.19.4-17.27a24,24,0,0,0-.26-6.17l-7.87-33.1-1.57-6.61c-.39-1.62-.48-3.22-2.27-3.94s-3.35-1.29-5-1.93l-30.42-11.66-35.87-13.75L1291.59,399c-1.56-.61-3.21-1.58-4.92-1.3-7.31,1.22-14.6,2.62-21.89,3.93l-38.72,6.95-26.57,4.77-1.34.24a2.5,2.5,0,1,0,1.33,4.82l8.82-1.58,21.2-3.81,25.51-4.58,22.19-4c3.57-.64,7.27-1.06,10.79-1.94l.16,0h-1.33l8.57,3.28,20.69,7.93L1341,423.3l21.55,8.26,7.11,2.73c1.12.43,2.25,1,3.4,1.3l.15.06-1.75-1.75,7,29.57c1,4.36,2,8.75,3.11,13.07.2.77,0,0,0-.2a5.14,5.14,0,0,0,0,1.11l-.13,5.51-.85,37.34-.11,5a4.85,4.85,0,0,0,.55,2.48c2,3.87,4.14,7.69,6.2,11.53l16,29.71.32.59v-2.52l-8.81,14.17L1380.63,604l-3.22,5.19.9-.9-7.91,3.43-19,8.23-23,10-19.88,8.62c-3.21,1.38-6.55,2.62-9.67,4.19l-.14.06,1.26-.34-9.35-.72L1268.05,640l-27.21-2.08-23.54-1.79-7.8-.6c-1.23-.09-2.48-.28-3.71-.28h-.16l1.26.34-32.9-14-4.61-2,1.15,1.49-5.2-13.8-8.28-22-1.91-5.07v1.33l4.17-22.17,6.5-34.55c.43-2.31.92-4.62,1.3-6.93a12.69,12.69,0,0,0-.42-3.91l-1.22-7.38-2.93-17.7c-.23-1.43-.43-2.87-.71-4.29-.07-.36,0,1.06.07.14,0-.64,0-1.29,0-1.93V450.89l-.73,1.77,13.36-11.82,21.18-18.74,4.87-4.3C1203,415.66,1199.45,412.14,1197,414.26Z"/></g><g id="Capa_5" data-name="Capa 5"><path class="cls-1" d="M776.63,566.08q0,25.33-19,39.18t-52.77,13.85h-93V433.24H697q34,0,51.52,11.81T766,479.94q0,15.82-8.78,26.71t-26.71,14.71Q753,524,764.82,535.54T776.63,566.08Zm-49.86-80.87q0-12.52-8-17.81t-23.68-5.27H650.78v46h44.59q16.49,0,23.94-5.74T726.77,485.21Zm10.81,77.84q0-26.13-37.46-26.12H650.78v53.29h50.79q18.73,0,27.37-6.79T737.58,563.05Z"/><path d="M945.62,589v30.08H807V433.24h38.92V589Z"/><path class="cls-1" d="M1152.73,525.32q0,29-11.68,50.72a83.26,83.26,0,0,1-32.84,33.7q-21.18,12-49.67,12-29.16,0-50.13-11.68a78.69,78.69,0,0,1-32.19-33.31Q965,555.13,965,525.32t11.15-51.06a76.34,76.34,0,0,1,32.19-32.51q21-11.28,50.45-11.28t50.53,11.41a77.67,77.67,0,0,1,32.19,32.65Q1152.72,495.77,1152.73,525.32Zm-39.71,0q0-30.08-14.25-47.16t-40-17.09q-26.11,0-40.36,16.95t-14.25,47.3q0,20.31,6.6,35.09t18.79,22.75q12.21,8,29,8,26.12,0,40.3-17.15T1113,525.32Z"/><path class="cls-1" d="M1270.4,596.28a105.69,105.69,0,0,0,26.95-3.51c7.78-2.07,15.65-5,22.43-9.4a53.11,53.11,0,0,0,4.6-3.41,5.91,5.91,0,0,0,2.47-4.53c0-1.06,0-2.13,0-3.19V549.85a5.07,5.07,0,0,0-5-5h-45.38l5,5V521.1l-5,5h81l-5-5v68.33l1.47-3.54c-1.36,1.4-2.77,2.74-4.22,4-.71.64-1.43,1.26-2.16,1.87l-1.19,1-.45.36c-.43.34-.56.46-.05,0a80.67,80.67,0,0,1-10.16,6.8,112.58,112.58,0,0,1-11.5,5.81c-.2.08-1.79.75-.79.34l-1.41.57c-1.08.44-2.18.86-3.28,1.27q-3.3,1.23-6.67,2.29a140.29,140.29,0,0,1-13.68,3.58c-2.32.49-4.64.91-7,1.28l-1.59.24c-.23,0-2,.27-1,.14-1.22.16-2.44.3-3.66.43a150.25,150.25,0,0,1-28.53.29c-1.08-.1-2.17-.2-3.25-.33l-1.49-.17-.85-.11-.15,0q-3.2-.47-6.37-1.1a102.92,102.92,0,0,1-11.94-3.17c-1.88-.63-3.73-1.33-5.57-2.08-1.18-.48.46.21-.37-.16l-1.38-.61-2.7-1.29a79.66,79.66,0,0,1-10.24-6.13l-1.24-.89c-.16-.12-1.23-.93-.71-.53s0,0-.1-.08l-.6-.48c-.44-.35-.88-.72-1.32-1.08-1.5-1.27-2.94-2.59-4.34-4s-2.73-2.81-4-4.3c-.62-.72-1.23-1.45-1.82-2.2a5.39,5.39,0,0,1-.47-.6s.53.71.19.25-.69-.92-1-1.38a80.29,80.29,0,0,1-6.32-10.34c-.88-1.72-1.68-3.47-2.47-5.24-.29-.65.34.82.07.16-.08-.18-.15-.35-.22-.53-.19-.46-.38-.93-.56-1.4-.37-1-.73-1.91-1.06-2.87a101.57,101.57,0,0,1-3.35-11.75q-.69-3.11-1.21-6.26c-.17-1-.33-2.07-.47-3.12,0-.21-.12-1,0,.07,0-.21,0-.43-.08-.64-.08-.64-.15-1.28-.22-1.92a153.8,153.8,0,0,1-.52-27.31q.21-3.17.57-6.31c.05-.46.1-.93.16-1.39,0-.26.06-.53.1-.79,0,.16-.15,1.09,0,.15s.31-2.07.48-3.1a108.54,108.54,0,0,1,2.53-11.41,94.39,94.39,0,0,1,3.6-10.47c.34-.83-.35.81.11-.25.18-.42.37-.84.56-1.26.38-.84.78-1.66,1.19-2.48.78-1.57,1.61-3.12,2.49-4.63s1.79-3,2.76-4.4q.7-1,1.44-2l.69-.93c.11-.15.53-.76.11-.16s.17-.21.22-.28a75.1,75.1,0,0,1,6.91-7.57q1.86-1.77,3.84-3.41c.3-.25.59-.49.9-.73s1.17-1.21.29-.24a13.44,13.44,0,0,1,2.14-1.58,78.14,78.14,0,0,1,8.88-5.44q2.36-1.23,4.79-2.31c.37-.16.74-.36,1.12-.49-1.32.45.14-.05.42-.16.87-.35,1.75-.69,2.63-1a97.33,97.33,0,0,1,10.81-3.25q2.85-.69,5.75-1.22c1-.18,1.92-.34,2.87-.5l1.36-.2c.28,0,2.14-.35.83-.13a102.28,102.28,0,0,1,12.73-1.06c4.6-.18,9.22-.17,13.82,0,2.2.09,4.39.24,6.58.43,1.14.1,2.27.22,3.4.34l1.47.18.37.05.57.08a99.15,99.15,0,0,1,23,6l.5.21c.65.26-.84-.37-.2-.09l1.14.5q1.29.58,2.55,1.2,2.52,1.24,4.94,2.68t4.68,3c.4.28.79.57,1.19.87a3.35,3.35,0,0,1,.58.44s-.94-.75-.14-.11,1.52,1.23,2.26,1.87a64.08,64.08,0,0,1,7.84,8.13c.12.15.94,1.2.52.65s.38.51.5.67c.58.8,1.15,1.6,1.7,2.43,1.12,1.66,2.16,3.38,3.12,5.13s1.74,3.3,2.51,5c.22.48.43.95.64,1.43.08.18.16.36.23.54-.39-1-.13-.31,0-.09.39,1,.79,2,1.16,3l3.49-6.15-31.44,9.48-4.44,1.34,6.15,3.49a50.28,50.28,0,0,0-17.21-22.22c-7.93-5.67-17.48-8.56-27.08-9.65-17.56-2-36.88,1.88-50,14.36-12.74,12.14-17.58,29.92-18.62,47-1.08,17.86,1.06,37.4,10.83,52.83a53.9,53.9,0,0,0,17.76,17.56,59.87,59.87,0,0,0,25.34,7.73c2.3.21,4.61.3,6.92.31a5,5,0,0,0,0-10c-2.24,0-4.49-.1-6.72-.29l-1.38-.14-.77-.09c-1-.12.11.06.17,0-.29.13-1.2-.18-1.52-.23l-1.68-.3a59.82,59.82,0,0,1-5.9-1.47c-.92-.29-1.82-.59-2.72-.93l-1.16-.44-.22-.09c.72.3-.22-.1-.37-.16a48.15,48.15,0,0,1-5.09-2.65c-.74-.45-1.46-.91-2.18-1.4l-1.12-.79-.56-.41c-.75-.55.53.43.06,0a54.4,54.4,0,0,1-7.9-7.94c-.57-.72.15.24.19.24s-.32-.42-.39-.52c-.26-.35-.51-.7-.76-1.06-.54-.76-1.05-1.54-1.54-2.33a52,52,0,0,1-2.61-4.67c-.4-.81-.79-1.64-1.16-2.47-.51-1.16.24.6-.1-.24-.22-.54-.44-1.08-.65-1.63q-1-2.69-1.8-5.45t-1.41-5.83c-.21-1-.4-2-.57-3-.08-.52-.17-1-.24-1.57a5.39,5.39,0,0,1-.12-.79c0,.67.07.54,0-.06a114.19,114.19,0,0,1-.85-13.82,116.12,116.12,0,0,1,.76-13.95c0-.27.07-.53.1-.8.08-.75-.13.87,0,.13.07-.53.15-1,.23-1.58.17-1.09.36-2.18.58-3.26.38-2,.84-3.92,1.38-5.84s1.11-3.66,1.78-5.45c.16-.44.33-.87.5-1.31a4.3,4.3,0,0,1,.26-.64c-.55.9-.24.56-.1.25.39-.89.79-1.76,1.22-2.62a52.89,52.89,0,0,1,2.67-4.77c.43-.69.89-1.37,1.35-2l.76-1c.22-.3.2-.66.09-.13-.26.33-.26.33,0,0l.2-.25a44,44,0,0,1,3.54-3.94c.64-.63,1.29-1.24,2-1.83.33-.29.67-.58,1-.86l.51-.42c.71-.58-.59.43-.09.07a50.24,50.24,0,0,1,4.61-3,25.24,25.24,0,0,1,4.88-2.43c-.12,0-1.07.43-.24.1l.65-.25,1.32-.49c.89-.32,1.79-.61,2.7-.88a59.54,59.54,0,0,1,5.9-1.41,27.34,27.34,0,0,1,2.83-.46c-1.3.09.26,0,.6-.06.66-.08,1.32-.14,2-.2,2.19-.18,4.39-.28,6.58-.29,2.35,0,4.7.08,7,.3.57.05,1.14.12,1.7.18,1,.11.12,0-.07,0l.84.12c1.16.18,2.31.39,3.46.63a54.89,54.89,0,0,1,6.41,1.79c.93.32,1.85.68,2.76,1,.68.28-.77-.35-.11,0l.71.32,1.59.76a46.13,46.13,0,0,1,5.26,3.09c.41.28.82.56,1.22.86.19.14.41.28.59.44-.11-.1-.83-.67-.14-.1s1.6,1.34,2.36,2.06a52.72,52.72,0,0,1,4,4.32c.46.54-.52-.7-.1-.13l.45.6c.29.4.58.81.86,1.22q.9,1.34,1.71,2.73c.52.89,1,1.8,1.46,2.73.2.41.4.82.59,1.24.1.21.86,2,.37.81,1,2.45,3.3,4.35,6.15,3.49l31.44-9.48,4.45-1.34c2.42-.73,4.44-3.55,3.49-6.15-3.89-10.59-9.61-20.45-17.67-28.42a76,76,0,0,0-27.35-16.95c-10.83-4-22.44-5.83-33.94-6.47a152.18,152.18,0,0,0-36.23,2.16c-19.67,3.67-38.47,12.89-51.46,28.41-13.88,16.6-19.86,37.68-21.21,59-1.49,23.48,1.59,48.44,13.59,69.06a80.73,80.73,0,0,0,22.62,24.92A89.09,89.09,0,0,0,1236.76,623a135.22,135.22,0,0,0,37.29,3.72,151,151,0,0,0,38.92-6.24,123.28,123.28,0,0,0,33.19-15.21,95.81,95.81,0,0,0,13.38-10.8c1.53-1.49,2.86-2.89,2.92-5.19,0-.36,0-.73,0-1.1v-67a5.07,5.07,0,0,0-5-5h-81a5.07,5.07,0,0,0-5,5v28.75a5.07,5.07,0,0,0,5,5h45.38l-5-5v25.73l1.46-3.54-1,.85-.51.42c.57-.44.64-.5.21-.17-.75.55-1.5,1.09-2.28,1.59a50,50,0,0,1-4.81,2.78c-.94.48-1.89.94-2.85,1.37-.2.09-1.82.79-.69.32l-1.57.63c-2.15.84-4.34,1.59-6.55,2.27a97.21,97.21,0,0,1-14,3.22c-.21,0-1.83.25-.74.11l-1.85.23c-1.24.13-2.48.25-3.72.34-2.51.19-5,.27-7.53.28a5,5,0,0,0,0,10Z"/></g></svg>