<svg xmlns="http://www.w3.org/2000/svg" viewBox="0 0 1088.06 219.15"><defs><style>.cls-1{fill:#d0ff00;}</style></defs><title>Recurso 3</title><g id="Capa_2" data-name="Capa 2"><g id="Capa_9" data-name="Capa 9"><polygon class="cls-1" points="161.78 34.11 115.96 19.34 55.7 19.34 14.78 50.03 19.33 101.53 33.88 131.94 0 145.31 10.23 176.22 47.75 205.78 125.05 205.78 178.88 189.2 173.94 152.35 161.78 109.56 178.88 66.19 161.78 34.11"/><polygon class="cls-1" points="350.46 26.16 327.21 42.32 338.83 83.34 338.83 124.25 327.21 166.37 313.77 184.18 344.46 205.78 441.25 205.78 480.65 191.28 495.66 166.37 488.84 115.97 480.65 109.56 488.84 83.34 480.65 42.32 436.55 19.34 350.46 26.16"/><path d="M860.51,10.24,832.17,29.71l9.05,64.66-12.46,54.57-6.82,31.83,19.28,27.28s53.47,11.37,54.61,8,9.1-18.19,9.1-18.19l15.91,18.83,36.38-7.46,9.1-20,17,27.45h40.92V170.54l4.55-38.6-8-50.08,8-39.54L1009.78,18.2,948.13,29.71l-13,12.61-37-27.47Z"/><path class="cls-1" d="M859.24,8.08l-24.76,17-3.57,2.46a2.64,2.64,0,0,0-1.15,2.82l3.06,21.86,4.87,34.83,1.12,8V93.7l-3.36,14.69-6.12,26.8c-1,4.41-2.05,8.82-3,13.24-1.57,7.19-3.08,14.4-4.63,21.6l-2,9.47a3.46,3.46,0,0,0,.24,2.71c.51.82,1.13,1.59,1.69,2.38l14.65,20.72,2.29,3.25a4,4,0,0,0,2.08,1.91c1.64.49,3.41.72,5.09,1.06,8.33,1.7,16.68,3.33,25.06,4.77,4.5.78,9,1.5,13.54,2.1a58.7,58.7,0,0,0,9.26.74,7,7,0,0,0,3.25-.68,3.36,3.36,0,0,0,1.45-1.84c.11-.27.2-.54.31-.81-.26.66,0,0,0-.11l.32-.71c2-4.43,4.34-8.75,6.63-13.06.5-1,1-1.9,1.51-2.85l-3.92.51L917.05,216l2,2.39a2.52,2.52,0,0,0,2.44.65l25-5.13c3.65-.75,7.35-1.38,11-2.25a3.39,3.39,0,0,0,2.37-2.3l2.73-6,5.87-12.91h-4.31l16.52,26.59a7.55,7.55,0,0,0,.92,1.36,3.11,3.11,0,0,0,2.46.74h40.23a2.53,2.53,0,0,0,2.5-2.5V188.27c0-7-.43-14.07.39-21L1031.1,134a10.17,10.17,0,0,0,.14-2.75c-.15-1-.32-2-.48-3l-2.46-15.51-4.91-30.88-.1-.61v1.33l6.19-30.71,1.39-6.94c.32-1.59.81-3-.32-4.4-3-3.85-6.06-7.67-9.09-11.5l-9.91-12.55a2.51,2.51,0,0,0-2.44-.64l-31.44,5.87L956.5,25.61l-6.71,1.25c-1.19.23-2.5.27-3.44,1.09-2.29,2-4.39,4.27-6.57,6.38l-6.41,6.22,3-.39-29.71-22-6.19-4.58a5.73,5.73,0,0,0-3.06-1.27L878.56,10l-18-2.22a2.51,2.51,0,0,0-2.5,2.5,2.55,2.55,0,0,0,2.5,2.5l33,4,4.64.56L896.84,17l12.5,9.27,19.94,14.79,4.6,3.41a2.51,2.51,0,0,0,3-.39l13-12.61-1.1.64,20.81-3.89L1002.79,22l7.65-1.43L1008,20l16.67,21.09,2.39,3-.64-2.43-3.12,15.51L1018.92,79a11,11,0,0,0-.39,3.91c.29,1.89.6,3.79.9,5.69l3.69,23.18,3.07,19.33c.07.49.13,1,.23,1.47.06.3.06-.88-.09-.48a3.46,3.46,0,0,0-.09.72l-.92,7.88-2.81,23.85a76.3,76.3,0,0,0-.72,9.29v42.86l2.5-2.5H983.37l2.16,1.24-14.91-24-2.15-3.45c-.9-1.45-3.5-1.79-4.31,0l-7.94,17.45-1.16,2.55,1.5-1.15-31.89,6.53-4.49.93,2.43.64-13.89-16.44-2-2.39a2.51,2.51,0,0,0-3.92.51c-2.74,5.08-5.48,10.19-7.92,15.43-.27.58-.54,1.16-.79,1.75-.16.38-.32.76-.47,1.15s-.36.61,0,0a2,2,0,0,1,.69-.72c-.36.23.52-.08.32-.13a1.14,1.14,0,0,0-.3.09.58.58,0,0,0-.14,0c-.52.16.29-.05.27,0-.25.27-1.81.08-2.15.07-1.05,0-2.09-.1-3.13-.19q-2-.18-3.87-.42l-1-.13-.41-.06-.18,0-2.28-.33c-3.29-.48-6.56-1-9.83-1.59-6.45-1.12-12.87-2.35-19.29-3.63-3.48-.69-6.95-1.39-10.42-2.13l1.49,1.15-16.92-23.94-2.36-3.35.25,1.93,6.7-31.3c2-9.13,4.16-18.22,6.24-27.33l4.56-20,1.4-6.16a8,8,0,0,0,.37-3.07c-1.4-10.17-2.85-20.34-4.27-30.51l-4.69-33.47-.08-.59-1.15,2.83,24.76-17,3.58-2.46A2.56,2.56,0,0,0,862.66,9,2.52,2.52,0,0,0,859.24,8.08Z"/></g><g id="Capa_8" data-name="Capa 8"><path d="M161.78,146.87q0,21.58-16,33t-47,11.41q-55.77,0-64.94-40.34L63.59,146q3,11.67,11.78,16.94t24.29,5.26q16.16,0,24.18-4.9t8-14.69a14.88,14.88,0,0,0-3.65-10.32,27.52,27.52,0,0,0-10.43-6.78,78.82,78.82,0,0,0-9.8-3q-6.46-1.62-16-3.6-11-2.6-17.3-4.43a74.26,74.26,0,0,1-10-3.54c-2.5-1.15-4.93-2.41-7.3-3.8A33.47,33.47,0,0,1,45.14,100.7q-4.38-7.83-4.38-19.5,0-19.9,15-30.49T99.24,40.13q27.3,0,41,8.55t17.67,28.25L128.11,81q-2.3-9.48-9.33-14.28T98.61,61.92q-14,0-21,4.38t-7,13.13a14.38,14.38,0,0,0,3,9.38,23.31,23.31,0,0,0,8.81,6.26q5.52,2.49,23.66,6.36,10.53,2.29,18.14,4.32a106,106,0,0,1,12.19,3.91,66.33,66.33,0,0,1,8.19,4.17,36.05,36.05,0,0,1,6.2,4.69A34.41,34.41,0,0,1,159,130.66,43.59,43.59,0,0,1,161.78,146.87Z"/><path class="cls-1" d="M327.21,115.08q0,22.94-9.22,40.08a65.78,65.78,0,0,1-26,26.63q-16.72,9.5-39.25,9.49-23,0-39.61-9.23a62.2,62.2,0,0,1-25.43-26.31q-8.87-17.1-8.86-40.66t8.81-40.34a60.28,60.28,0,0,1,25.43-25.69q16.62-8.92,39.87-8.92t39.93,9A61.32,61.32,0,0,1,318.35,75Q327.21,91.74,327.21,115.08Zm-31.37,0q0-23.76-11.26-37.26T253,64.32q-20.64,0-31.89,13.39t-11.26,37.37q0,16,5.21,27.73a40.56,40.56,0,0,0,14.85,18q9.65,6.32,22.88,6.31,20.64,0,31.85-13.55T295.84,115.08Z"/><path d="M480.65,147.29q0,20-15,31T424,189.2H350.46V42.32h67.23q26.9,0,40.71,9.33t13.81,27.57q0,12.51-6.93,21.11T444.17,112Q462,114,471.32,123.16T480.65,147.29Zm-39.4-63.9q0-9.9-6.31-14.07t-18.71-4.17h-35v36.38h35.23q13,0,18.92-4.53T441.25,83.39Zm8.55,61.5q0-20.64-29.61-20.64h-39v42.12h40.13q14.81,0,21.63-5.37T449.8,144.89Z"/><path class="cls-1" d="M535.38,133.43V189.2H504.63V42.32H578q26.26,0,40.54,11.31T632.85,86.1q0,15.44-8.76,26.64t-23.66,14.75l39.71,61.71h-34.6l-34.09-55.77Zm66.51-46.08q0-10.51-6.78-15.84t-20.32-5.32H535.38v43.37h40.24q12.93,0,19.6-5.84T601.89,87.35Z"/><path class="cls-1" d="M778.57,165.43V189.2H658.8V42.32H774.3V66.09H689.55V103h78.39v23.77H689.55v38.67Z"/><path class="cls-1" d="M882.82,100.18v78c0,3.6-.16,7.24,0,10.84v.16l5-5H860.51l5,5V60.34c0-5.91.21-11.86,0-17.77a2.09,2.09,0,0,1,0-.25l-5,5h41.17l-4.82-3.67L900,53.59l7.38,23.09,8.33,26,6.12,19.15c2.62,8.2,4.63,16.58,6.82,24.9q.87,3.33,1.73,6.66c1.26,4.85,8.3,4.66,9.65,0,2.59-9,4.84-18,7.63-27l5.93-18.94L962,80.7l7.67-24.51c1.29-4.1,2.75-8.2,3.88-12.36a1.21,1.21,0,0,1,0-.18l-4.82,3.67h41l-5-5V171.18c0,5.91-.21,11.86,0,17.77v.25l5-5H982.47l5,5V102.8c0-9.11.32-18.23.71-27.33.1-2.43.21-4.87.33-7.3a5,5,0,0,0-9.82-1.33c-3.46,13.22-6.88,26.49-11.07,39.49L962.88,121l-8.61,26.62L945.74,174c-1.47,4.54-3.12,9.06-4.41,13.64l-.06.21,4.82-3.67H924.2l4.82,3.67-5.33-16.5-10.85-33.55-8.94-27.67c-1.44-4.45-2.71-8.94-4-13.44l-8.35-29.26-.17-.61a5,5,0,0,0-5.49-3.58,5,5,0,0,0-4.33,4.91c.55,10.65,1.23,21.34,1.25,32a5,5,0,0,0,10,0c0-10.67-.7-21.36-1.25-32l-9.82,1.33,7.39,25.93c1.49,5.2,2.87,10.43,4.54,15.57l8.19,25.34,11,34.06c2.14,6.61,4.17,13.26,6.41,19.83,0,.1.07.2.1.29a5.14,5.14,0,0,0,4.82,3.68h21.89a5.13,5.13,0,0,0,4.82-3.68l3.62-11.19,8.24-25.5,8.81-27.26L977,109.73c3.54-11,6.53-22.14,9.48-33.28q.93-3.47,1.83-7l-9.82-1.33c-.54,11.13-1,22.28-1,33.42v73.46c0,4.64-.12,9.3,0,13.94v.21a5.07,5.07,0,0,0,5,5h27.31a5.08,5.08,0,0,0,5-5V60.34c0-5.92.13-11.85,0-17.77v-.25a5.07,5.07,0,0,0-5-5h-41A5.12,5.12,0,0,0,964,41l-3.17,10.12-7.4,23.64-8.48,27.08-6.38,20.37c-2.27,7.23-4.28,14.52-6.26,21.84q-.9,3.36-1.88,6.72h9.65c-2.3-8.91-4.75-17.77-7.05-26.68-.31-1.18-.69-2.32-1.06-3.48L926.34,103l-8.22-25.72-7.68-24c-1.29-4-2.49-8.13-3.88-12.13L906.5,41a5.14,5.14,0,0,0-4.82-3.67H860.51a5.07,5.07,0,0,0-5,5V171.18c0,5.91-.14,11.85,0,17.77v.25a5.07,5.07,0,0,0,5,5h27.31a5.08,5.08,0,0,0,5-5v-78c0-3.61.1-7.23,0-10.84v-.15a5,5,0,1,0-10,0Z"/><path class="cls-1" d="M1088.06,4.48l-35.44,25.23H1034.9V26.48L1061.17,0h26.89Zm-19,37.84V189.2h-30.75V42.32Z"/></g></g></svg>