<svg xmlns="http://www.w3.org/2000/svg" viewBox="0 0 1791.14 255.1"><defs><style>.cls-1{fill:#d0ff00;}</style></defs><title>titulos</title><g id="Capa_3" data-name="Capa 3"><polygon points="366.68 40.65 401.7 10.44 448.53 19.53 501.96 3.62 562.21 32.04 578.19 69.29 581.99 133.77 561.08 166.18 592.91 210.52 599.73 245.76 564.49 252.58 521.29 246.9 495.14 224.16 470.13 225.3 450.8 252.58 387.14 252.58 371.43 217.34 389.41 166.18 384.87 118.44 371.43 91.15 366.68 40.65"/><path class="cls-1" d="M467.19,428.68,479,418.47,497.9,402.2l4.32-3.73-2.44.65L518,402.65l25.74,5c1.44.28,3.12.85,4.56.46,2.27-.6,4.51-1.34,6.75-2l26.85-8,12.5-3.72c2.21-.66,4.52-1.19,6.69-2l.31-.1-1.93-.25,20.35,9.6,32.44,15.3,7.47,3.52-.9-.89,14,32.58,2,4.67-.34-1.26,1.29,21.82,2,34.73.46,7.93.34-1.26-18.32,28.4-2.59,4a2.45,2.45,0,0,0,0,2.52l7.83,10.9,14.88,20.73,6,8.43,2,2.76a8.74,8.74,0,0,0,1,1.4c.31.29-.19-.36-.16-.44a2,2,0,0,0,.12.62l.61,3.14,2.15,11.14,2.41,12.45c.48,2.48.85,5,1.45,7.49,0,.12,0,.24.07.37l1.75-3.08-33.39,6.46c-.58.12-1.2.18-1.77.35-.37.1.8.08.51-.09a1.43,1.43,0,0,0-.51-.06l-5.89-.78-21.47-2.82-15.26-2,1.77.73L607.5,619l-9.08-7.9c-1.35-1.17-3-3.15-4.88-3.12-7.36.1-14.74.67-22.1,1-.84,0-1.7,0-2.55.12-1.42.12-2,1-2.76,2.07l-5.68,8c-4.26,6-8.69,11.93-12.79,18.05l-.27.38,2.16-1.24H485.88l2.16,1.24-13.76-30.88-1.95-4.36.26,1.93L481,580.34,487.11,563c1.12-3.18,2.41-6.35,3.37-9.58a4.51,4.51,0,0,0,.08-1.9l-.47-5-1.65-17.31-1.69-17.77-.51-5.37a7.94,7.94,0,0,0-.55-2.77c-4.15-8.84-8.64-17.54-12.95-26.31l-.41-.82.34,1.26-1.6-17.07-2.56-27.19-.59-6.25a2.57,2.57,0,0,0-2.5-2.5,2.52,2.52,0,0,0-2.5,2.5l3.27,34.73,1.44,15.27a9.71,9.71,0,0,0,1.23,3.49l4.13,8.38L481.45,506l-.34-1.26L483.9,534l1.52,16,.18,1.86c.1,1-.12.14.14-.06-.13.1-.21.6-.26.75l-.63,1.78L473,588.12l-4.68,13.32c-.44,1.27-.87,2.07-.25,3.48.52,1.19,1.06,2.37,1.58,3.56l13.78,30.89.33.74a2.44,2.44,0,0,0,2.15,1.24h61.86c.56,0,1.13,0,1.69,0a3.21,3.21,0,0,0,2.58-1.67l5.36-7.56c4.46-6.3,9.1-12.5,13.39-18.91l.27-.38-2.16,1.24,21.87-1,3.14-.14-1.76-.73,18.74,16.3c2.45,2.13,4.85,4.31,7.34,6.38a5.13,5.13,0,0,0,2.94.93l4.39.58,30.29,4,5.3.7a19,19,0,0,0,2.11.27,14.06,14.06,0,0,0,2.64-.47l5.68-1.1,27-5.22.59-.12a2.54,2.54,0,0,0,1.74-3.07l-3.34-17.26-2.32-12c-.38-2-.6-4-1.15-6a12.61,12.61,0,0,0-2.18-3.3l-5.4-7.52-14.91-20.77-6.21-8.64c-1.07-1.49-2.06-3.13-3.24-4.53a1.49,1.49,0,0,1-.15-.2v2.52l15.77-24.43,3.82-5.93c.63-1,1.63-2.1,1.66-3.31.06-2.34-.28-4.76-.42-7.09l-2.1-35.69-.93-15.86-.27-4.52a7.49,7.49,0,0,0-.43-2.61q-5.8-13.63-11.68-27.23l-2.91-6.8c-.45-1-.81-2.18-1.36-3.16a3.92,3.92,0,0,0-2.07-1.48l-4-1.88-31.48-14.85c-7.8-3.68-15.57-7.44-23.41-11a3.64,3.64,0,0,0-2.8-.16l-4.08,1.22-15.45,4.6-31.33,9.33-1.91.57h1.33l-15.6-3-25.11-4.88c-2-.38-4-.8-6-1.16s-3.34,1.27-4.74,2.48l-18,15.52c-4.86,4.19-9.91,8.24-14.62,12.6l-.26.23a2.5,2.5,0,0,0,3.54,3.53Z" transform="translate(-98.74 -386.27)"/><path class="cls-1" d="M676.93,396.71H782.6l88.67,27.35,33-27.35,71.62,6.82,31.83,111,26.15,107.7-18.19,8.71-84.12-7.2L797.38,638.85l-87.92-13.64s-13.64-65.56-13.64-73.52,4.93-82.23,4.93-82.23L669.29,457Z" transform="translate(-98.74 -386.27)"/><polygon points="915.39 47.2 935.1 10.44 1027.56 16.88 1095.01 2.48 1118.51 37.8 1095.01 104.8 1104.87 176.04 1082.13 197.26 1078.34 246.52 981.33 252.58 926.18 243.21 921.52 136.29 891.14 79.78 915.39 47.2"/><path class="cls-1" d="M1016.3,434.72l17.28-32.23L1036,398l-2.16,1.24,25,1.74,45.3,3.15,16.71,1.17c2,.14,4.27.62,6.27.25,3.69-.68,7.35-1.57,11-2.35l21.07-4.5,34.59-7.38.6-.13L1191.6,390,1212.19,421l2.9,4.37-.25-1.93-8.08,23-12.71,36.25c-.89,2.53-2,5.08-2.69,7.67a7.52,7.52,0,0,0,.16,2.62l.63,4.59,5.06,36.54c1.31,9.45,2.36,19,3.92,28.37,0,.16,0,.33.07.49l.64-2.43L1190.2,571.4l-7.91,7.39c-1.34,1.25-3.71,2.76-3.92,4.74-.4,4-.61,7.93-.91,11.89l-1.75,22.79-1.13,14.58,2.5-2.5-21.92,1.37-43.13,2.7-30.31,1.89c-.4,0-.81,0-1.21.08s-.71-.07-.1.07-.22,0-.41-.08l-2-.34-16.86-2.86-34.91-5.94-.68-.11,1.83,2.41-.3-7-.78-17.84-1-23.72-1.07-24.67-.9-20.62-.52-11.87a5.92,5.92,0,0,0-.44-2.52c-.59-1.18-1.25-2.32-1.87-3.48l-9.4-17.48-11.53-21.45-7.17-13.34-.36-.66v2.52l21.22-28.5,3-4.09a2.53,2.53,0,0,0-.9-3.42,2.56,2.56,0,0,0-3.42.9l-21.22,28.51-3,4.08a2.43,2.43,0,0,0,0,2.52L998,486.36l16.38,30.49,3.75,7-.34-1.27.47,10.67,1.11,25.47,1.35,30.93,1.16,26.65c.19,4.34.25,8.7.57,13v.18a2.55,2.55,0,0,0,1.84,2.41l30.52,5.19,19.08,3.24c2.11.36,4.46,1.08,6.62,1,8.82-.29,17.65-1.11,26.46-1.66l43.28-2.7c8.82-.55,17.65-1,26.46-1.66l.4,0a2.57,2.57,0,0,0,2.5-2.5l1.29-16.68,2-26.45.47-6.13-.73,1.76L1199,570.06c2.11-2,4.4-3.85,6.38-5.95,1.21-1.29.51-3.7.29-5.32l-3.12-22.51-4-29c-.77-5.52-1.34-11.1-2.3-16.59l0-.25v1.33l5.47-15.62,10.65-30.35,7.13-20.34a2.88,2.88,0,0,0,0-2.66c-.4-.72-.92-1.39-1.38-2.08l-7.26-10.91-14.54-21.86-.28-.42a2.6,2.6,0,0,0-2.83-1.15l-29.46,6.29L1127,400.45c-.4.08-.81.14-1.2.25-.56.16.87.06.35-.06a17,17,0,0,0-2.85-.2l-14.56-1-44.83-3.12c-9.86-.69-19.74-1.61-29.62-2.06l-.46,0a2.47,2.47,0,0,0-2.16,1.23l-17.28,32.24L1012,432.2C1010.46,435,1014.77,437.57,1016.3,434.72Z" transform="translate(-98.74 -386.27)"/><path class="cls-1" d="M1403.32,425.13l40.92-25,59.38,19.32,7.7,68.21-13.65,65.94,63.67,5.68,28.42,25-5.69,36.63-18.19,8.85H1467l-51.16-8.85-12.5-21.85,14.87-85.26Z" transform="translate(-98.74 -386.27)"/><polygon class="cls-1" points="1562.63 69.29 1588.78 37.8 1638.8 4.75 1717.24 19.53 1759.31 60.46 1791.14 103.66 1777.5 165.05 1791.14 213.93 1737.71 231.93 1696.78 252.58 1613.74 243.49 1562.63 240.08 1554.68 190.06 1566.05 153.73 1554.68 113.89 1562.63 69.29"/></g><g id="Capa_1" data-name="Capa 1"><path class="cls-1" d="M256.09,487.46q0,18.6-8.49,32.92a58.55,58.55,0,0,1-24.1,22.4q-15.6,8.09-37.19,8.08H138.79V618.2h-40V426.91h85.94q34.33,0,52.88,15.82T256.09,487.46Zm-40.32.68q0-30.13-35.57-30.14H138.79v62h42.49q16.58,0,25.53-8.21T215.77,488.14Z" transform="translate(-98.74 -386.27)"/><path class="cls-1" d="M470.17,521.67q0,29.87-12,52.2a85.79,85.79,0,0,1-33.8,34.69q-21.8,12.35-51.12,12.35-30,0-51.58-12a81,81,0,0,1-33.13-34.28Q277,552.36,277,521.67t11.47-52.54a78.55,78.55,0,0,1,33.13-33.46q21.65-11.61,51.93-11.61t52,11.75a79.94,79.94,0,0,1,33.13,33.6Q470.17,491.27,470.17,521.67Zm-40.86,0q0-30.94-14.66-48.53t-41.13-17.58q-26.88,0-41.55,17.44t-14.66,48.67q0,20.91,6.79,36.11t19.35,23.42q12.56,8.22,29.79,8.22,26.88,0,41.48-17.65T429.31,521.67Z" transform="translate(-98.74 -386.27)"/><path class="cls-1" d="M535.5,545.57V618.2l5-5H500.45l5,5V434.7c0-2.48.08-5,0-7.46,0-.11,0-.22,0-.33l-5,5h91.81a170.59,170.59,0,0,1,17.94.71c.89.09,1.77.19,2.66.3s-.72-.1.28,0l1.38.21c1.61.25,3.22.54,4.82.88a84.62,84.62,0,0,1,9.13,2.42c1.4.46,2.78,1,4.15,1.51.32.13.63.29,1,.39-.77-.24-.47-.2.07,0s1.34.6,2,.92a58.94,58.94,0,0,1,7.29,4.17c.54.36,1.06.73,1.58,1.11l.78.57h0c-.6-.48,0,0,.13.11q1.73,1.38,3.32,2.89c1.09,1,2.12,2.12,3.1,3.25.45.52.89,1.05,1.32,1.58.59.73-.51-.69.05.07.23.32.47.64.7,1a45.85,45.85,0,0,1,4.26,7.42l.42.95c.28.63-.35-.87-.1-.23.06.17.13.33.19.49.28.71.55,1.43.79,2.15.49,1.42.91,2.85,1.27,4.31s.69,3,.94,4.53l.18,1.12a3,3,0,0,0,.08.56s-.12-1-.05-.37c.09.9.2,1.8.28,2.7a73.76,73.76,0,0,1,.13,10.3c0,.83-.12,1.67-.2,2.5,0,.41-.08.82-.13,1.23,0,.2,0,.41-.08.61.08-.41.1-.69,0-.12-.27,1.73-.6,3.44-1,5.13s-.86,3.18-1.39,4.73c-.26.74-.53,1.48-.82,2.2a2.63,2.63,0,0,1-.22.55s.36-.83.13-.3-.37.83-.56,1.24a52.06,52.06,0,0,1-5,8.6c-.23.32-.48.63-.71,1s.15-.19.18-.23l-.35.45c-.51.63-1,1.26-1.57,1.87q-1.52,1.74-3.2,3.35c-1.16,1.11-2.38,2.13-3.61,3.14-.45.37.28-.21.28-.21s-.38.29-.44.33l-.89.65c-.65.46-1.32.91-2,1.34-1.3.84-2.65,1.62-4,2.34-.67.35-1.34.69-2,1l-1,.48c-.39.17-1.28.63-.39.17a43.13,43.13,0,0,1-9.38,3,5,5,0,0,0-3,7.34l5.14,8,12.34,19.18,14.94,23.21,12.92,20.07c2.09,3.25,4.06,6.63,6.29,9.78a.67.67,0,0,1,.09.14l4.32-7.52H631.86l4.32,2.47-9.89-16.17-19.43-31.79-14.14-23.15c-.31-.5-.6-1-.92-1.5-1.47-2.24-3.47-2.49-5.77-2.49H540.5a5,5,0,0,0,0,10h47l-4.32-2.48,9.67,15.81L612,595.24l14.33,23.45c.39.64.77,1.28,1.17,1.91a5.79,5.79,0,0,0,5.23,2.6h44.23c3.67,0,6.4-4.3,4.32-7.53l-5.14-8-12.34-19.18L648.83,565.3l-12.92-20.08c-2.09-3.25-4.06-6.63-6.29-9.78a.67.67,0,0,1-.09-.14l-3,7.35a62.83,62.83,0,0,0,19.07-7.91A58.69,58.69,0,0,0,661,520.35c8.75-11.62,12.16-26.31,11.36-40.69-.74-13.41-5.1-26.34-14.3-36.33-8.43-9.14-20-14.92-32-18a124.14,124.14,0,0,0-30.91-3.43H500.45a5.07,5.07,0,0,0-5,5v183.5c0,2.48-.05,5,0,7.46v.33a5.07,5.07,0,0,0,5,5H540.5a5.08,5.08,0,0,0,5-5V545.57a5,5,0,0,0-10,0Z" transform="translate(-98.74 -386.27)"/><path class="cls-1" d="M632.11,485.56c0-6.06-1.2-12.29-4.43-17.51a28,28,0,0,0-11.84-10.47c-7.94-3.74-16.71-4.58-25.39-4.58h-50a5.07,5.07,0,0,0-5,5v56.48a5.07,5.07,0,0,0,5,5h49.37c7.14,0,14.4-.27,21.17-2.75a32.08,32.08,0,0,0,15.45-11.44c4.08-5.67,5.59-12.85,5.62-19.73a5,5,0,0,0-10,0c0,1.5-.1,3-.25,4.47-.13,1.27.15-.77,0,0-.06.31-.1.62-.16.94-.13.73-.3,1.46-.49,2.18s-.37,1.28-.58,1.91l-.31.84c-.4,1.15.48-1,0,.11a28.74,28.74,0,0,1-1.83,3.36l-.59.85c-.16.24-.39.77.16-.19a8.57,8.57,0,0,1-1.24,1.45c-.43.48-.89.93-1.36,1.37-.31.29-1.39.91-1.49,1.27.14-.47.81-.58.13-.12-.22.15-.43.31-.65.45-.44.3-.9.59-1.36.86s-1.14.64-1.73.93l-.6.29-.61.28c.67-.28.76-.32.25-.11a40.07,40.07,0,0,1-7.53,2.1l-1,.16c-.3,0-1.41.42-.25,0a9.39,9.39,0,0,1-2.05.21c-1.58.14-3.17.21-4.76.23-1.15,0-2.3,0-3.45,0H540.5l5,5V458l-5,5h51.27c2.5,0,5,.1,7.5.35l1,.11c.29,0,1.24.12.07,0,.64.06,1.29.19,1.93.3,1.4.25,2.78.56,4.15.93.73.21,1.46.43,2.17.67.33.11,1.77.42,1.89.71,0,0-1.14-.52-.29-.12.39.18.78.35,1.16.54.56.28,1.11.58,1.65.89s1,.64,1.54,1c.21.14.4.31.61.44s.16.11-.42-.34l.53.43a27.71,27.71,0,0,1,2.82,2.81c.76.86-.63-.91,0,0,.19.27.39.54.57.81q.55.84,1,1.71c.16.3.31.59.46.9s.71,1,0,0a7.22,7.22,0,0,1,.71,1.95,30.63,30.63,0,0,1,1,4.24c.22,1.27-.08-1.12,0,.18,0,.46.08.91.11,1.37.06.87.08,1.75.09,2.63a5,5,0,1,0,10,0Z" transform="translate(-98.74 -386.27)"/><path d="M782.55,457.87V618.2h-40V457.87H680.73v-31H844.46v31Z" transform="translate(-98.74 -386.27)"/><path d="M890.75,569.32l-17,48.88h-40l69.78-191.29h47.24l69.51,191.29H980.62l-17-48.88Zm36.38-113q-1.35,5.43-3.8,13t-3.53,10.72l-20.09,59h55l-20.63-60.27q-1.9-5.57-3.53-11.27T927.13,456.37Z" transform="translate(-98.74 -386.27)"/><path class="cls-1" d="M1081.24,548V618.2l5-5h-40l5,5V434.7c0-2.48.08-5,0-7.46v-.33l-5,5h123.63c5.72,0,11.48.22,17.19,0h.23l-5-5v31l5-5h-88.58c-4.07,0-8.17-.11-12.24,0h-.18a5.07,5.07,0,0,0-5,5v59.19a5.07,5.07,0,0,0,5,5h85.81c4,0,8,.17,11.91,0h.16l-5-5v31l5-5H1098.3c-4,0-7.94-.11-11.9,0h-.16a5,5,0,0,0,0,10h85.81c4,0,7.94.11,11.91,0h.16a5.07,5.07,0,0,0,5-5v-31a5.07,5.07,0,0,0-5-5H1098.3c-4,0-8-.18-11.9,0h-.16l5,5V457.87l-5,5h88.58c4.07,0,8.17.11,12.24,0h.18a5.07,5.07,0,0,0,5-5v-31a5.07,5.07,0,0,0-5-5H1063.61c-5.72,0-11.47-.13-17.19,0h-.23a5.07,5.07,0,0,0-5,5v183.5c0,2.48,0,5,0,7.46v.33a5.07,5.07,0,0,0,5,5h40a5.08,5.08,0,0,0,5-5V548a5,5,0,0,0-10,0Z" transform="translate(-98.74 -386.27)"/><path class="cls-1" d="M1402,521.67q0,29.87-12,52.2a85.73,85.73,0,0,1-33.8,34.69q-21.8,12.35-51.11,12.35-30,0-51.59-12a81.06,81.06,0,0,1-33.13-34.28q-11.53-22.26-11.53-53t11.47-52.54a78.52,78.52,0,0,1,33.12-33.46q21.66-11.61,51.93-11.61t52,11.75a79.88,79.88,0,0,1,33.13,33.6Q1402,491.27,1402,521.67Zm-40.86,0q0-30.94-14.67-48.53t-41.13-17.58q-26.88,0-41.54,17.44t-14.66,48.67q0,20.91,6.78,36.11t19.35,23.42q12.56,8.22,29.8,8.22,26.88,0,41.47-17.65T1361.15,521.67Z" transform="translate(-98.74 -386.27)"/><path d="M1575,587.24v31H1432.28V426.91h40V587.24Z" transform="translate(-98.74 -386.27)"/><path class="cls-1" d="M1642.16,426.91V618.2h-40.05V426.91Z" transform="translate(-98.74 -386.27)"/><path d="M1865.35,521.67q0,29.87-12,52.2a85.79,85.79,0,0,1-33.8,34.69q-21.79,12.35-51.11,12.35-30,0-51.59-12a81.06,81.06,0,0,1-33.13-34.28q-11.54-22.26-11.54-53t11.48-52.54a78.47,78.47,0,0,1,33.12-33.46q21.66-11.61,51.93-11.61t52,11.75a79.94,79.94,0,0,1,33.13,33.6Q1865.35,491.27,1865.35,521.67Zm-40.87,0q0-30.94-14.66-48.53t-41.13-17.58q-26.88,0-41.54,17.44t-14.67,48.67q0,20.91,6.79,36.11t19.35,23.42q12.56,8.22,29.8,8.22,26.88,0,41.47-17.65T1824.48,521.67Z" transform="translate(-98.74 -386.27)"/></g></svg>