<svg width="193" height="185" viewBox="0 0 193 185" fill="none" xmlns="http://www.w3.org/2000/svg">
<g clip-path="url(#clip0_90_5)">
<path d="M77.5007 136.706C75.9178 140.695 74.4451 144.566 72.8228 148.374C72.5235 149.083 71.736 149.761 71.0036 150.076C60.9705 154.444 51.2917 151.622 45.1805 142.43C41.8414 137.408 37.8958 133.332 31.7137 132.11C31.2255 132.016 30.6821 131.771 30.241 131.882C28.666 132.284 27.1145 132.812 25.5552 133.293C26.4609 134.515 27.1224 136.131 28.3273 136.895C33.4463 140.159 36.9035 144.676 39.2898 150.163C43.9362 160.853 52.3549 165.946 64.1836 165.228C66.7824 165.071 69.3734 164.732 72.3739 164.432C72.3739 170.053 72.5787 175.65 72.2952 181.216C72.1376 184.393 68.7513 185.796 64.9632 184.543C55.9303 181.563 47.5352 177.29 39.8489 171.693C17.6878 155.54 4.08717 133.939 0.79529 106.678C-3.05573 74.7899 7.15853 47.4581 30.6427 25.5817C71.8148 -12.7633 138.66 -7.23698 173.012 37.0599C211.31 86.4416 192.417 157.779 134.652 181.902C132.336 182.871 129.99 183.77 127.603 184.527C122.886 186.025 120.114 183.991 120.114 179.08C120.114 171.535 120.114 163.983 120.224 156.438C120.327 149.335 119.358 142.603 114.215 137.014C118.815 136.044 123.233 135.327 127.533 134.16C145.74 129.217 156.057 116.335 157.482 97.4468C158.223 87.7029 157.86 78.164 151.985 69.9653C149.221 66.1181 148.134 62.8386 149.323 58.0455C150.686 52.5587 149.512 46.8669 147.764 41.4115C147.15 39.4959 146.087 38.9756 144.236 39.0859C137.503 39.4959 131.454 42.0974 126.052 45.7632C122.075 48.4593 118.507 48.5303 114.042 47.5921C101.197 44.8881 88.282 45.164 75.4925 48.2938C73.3032 48.8298 71.5864 48.5933 69.6333 47.3478C63.4276 43.3982 56.9462 40.0319 49.4489 39.1254C46.8264 38.81 45.4167 39.5116 44.645 42.2156C42.6919 49.0427 42.18 55.8224 44.1882 62.7283C44.4245 63.5482 44.3693 64.8489 43.8732 65.4244C34.7772 75.933 33.6668 88.2469 35.7695 101.231C38.8645 120.309 49.8663 131.29 69.7672 135.366C72.5078 135.926 75.2878 136.336 77.5007 136.714V136.706Z" fill="white"/>
</g>
<defs>
<clipPath id="clip0_90_5">
<rect width="193" height="185" fill="white"/>
</clipPath>
</defs>
</svg>
